<?xml version="1.0" encoding="utf-8"?>
<!-- Generator: Adobe Illustrator 23.0.1, SVG Export Plug-In . SVG Version: 6.00 Build 0)  -->
<svg version="1.1" id="Capa_1" xmlns="http://www.w3.org/2000/svg" xmlns:xlink="http://www.w3.org/1999/xlink" x="0px" y="0px"
	 viewBox="0 0 512 512" style="enable-background:new 0 0 512 512;" xml:space="preserve">
<style type="text/css">
	.st0{fill:#FFFFFF;}
</style>
<g>
	<g>
		<path class="st0" d="M406.1,60H105.9C80.6,60,60,80.6,60,105.9v300.1c0,25.3,20.6,45.9,45.9,45.9h300.1
			c25.3,0,45.9-20.6,45.9-45.9V105.9C452,80.6,431.4,60,406.1,60z M421.4,406.1c0,8.4-6.9,15.3-15.3,15.3h-87.3V296.6h47.3l7.8-47.5
			h-55.1v-32.9c0-13,10-23,23-23h31.4v-47.5h-31.4c-39,0-70.4,31.6-70.4,70.6v32.8h-45.9v47.5h45.9v124.8H105.9
			c-8.4,0-15.3-6.9-15.3-15.3V105.9c0-8.4,6.9-15.3,15.3-15.3h300.1c8.4,0,15.3,6.9,15.3,15.3V406.1z"/>
	</g>
</g>
</svg>
