<?xml version="1.0" encoding="utf-8"?>
<!-- Generator: Adobe Illustrator 23.0.1, SVG Export Plug-In . SVG Version: 6.00 Build 0)  -->
<svg version="1.1" id="Capa_1" xmlns="http://www.w3.org/2000/svg" xmlns:xlink="http://www.w3.org/1999/xlink" x="0px" y="0px"
	 viewBox="0 0 511 511" style="enable-background:new 0 0 511 511;" xml:space="preserve">
<style type="text/css">
	.st0{fill:#FFFFFF;}
</style>
<path class="st0" d="M450.2,175.2c-0.9-20.8-4.3-34.9-9.1-47.3c-5-13.1-12.6-24.8-22.5-34.6c-9.8-9.9-21.6-17.6-34.5-22.4
	c-12.4-4.8-26.5-8.2-47.3-9.1c-20.9-1-27.5-1.2-80.5-1.2s-59.6,0.2-80.3,1.1s-34.9,4.3-47.3,9.1c-13,5-24.8,12.5-34.6,22.5
	c-9.9,9.8-17.6,21.6-22.4,34.5c-4.8,12.4-8.2,26.5-9.1,47.3c-1,20.9-1.2,27.5-1.2,80.4s0.2,59.6,1.1,80.3
	c0.9,20.8,4.3,34.9,9.1,47.3c5,13.1,12.7,24.8,22.5,34.6c9.8,9.9,21.6,17.6,34.5,22.4c12.4,4.8,26.5,8.2,47.3,9.1
	c20.8,0.9,27.4,1.1,80.3,1.1s59.6-0.2,80.3-1.1c20.8-0.9,34.9-4.3,47.3-9.1c26.2-10.1,46.9-30.8,57.1-57.1
	c4.8-12.4,8.2-26.5,9.1-47.3c0.9-20.8,1.1-27.4,1.1-80.3S451.2,196,450.2,175.2z M415.1,334.4c-0.8,19.1-4,29.3-6.7,36.2
	c-6.6,17-20.1,30.4-37,37c-6.9,2.7-17.2,5.9-36.2,6.7c-20.6,0.9-26.7,1.1-78.7,1.1s-58.3-0.2-78.7-1.1c-19.1-0.8-29.3-4-36.2-6.7
	c-8.5-3.1-16.2-8.1-22.4-14.6c-6.5-6.3-11.4-14-14.6-22.4c-2.7-6.9-5.9-17.2-6.7-36.2c-0.9-20.6-1.1-26.7-1.1-78.7
	s0.2-58.3,1.1-78.7c0.8-19.1,4-29.3,6.7-36.2c3.1-8.5,8-16.2,14.6-22.4c6.3-6.5,14-11.4,22.4-14.6c6.9-2.7,17.2-5.9,36.2-6.7
	c20.6-0.9,26.7-1.1,78.7-1.1c52.1,0,58.3,0.2,78.7,1.1c19.1,0.8,29.3,4,36.2,6.7c8.5,3.1,16.2,8.1,22.4,14.6
	c6.5,6.3,11.4,14,14.6,22.4c2.7,6.9,5.9,17.2,6.7,36.2c0.9,20.6,1.1,26.7,1.1,78.7S416.1,313.8,415.1,334.4z"/>
<path class="st0" d="M256.4,155.4c-55.3,0-100.2,44.9-100.2,100.2s44.9,100.1,100.2,100.1c55.3,0,100.2-44.9,100.2-100.2
	S311.7,155.4,256.4,155.4z M256.4,320.5c-35.9,0-65-29.1-65-65s29.1-65,65-65c35.9,0,65,29.1,65,65S292.3,320.5,256.4,320.5z"/>
<path class="st0" d="M383.9,151.4c0,12.9-10.5,23.3-23.3,23.3c-12.9,0-23.3-10.5-23.3-23.3s10.5-23.3,23.3-23.3
	C373.4,128,383.9,138.5,383.9,151.4z"/>
</svg>
