<?xml version="1.0" encoding="utf-8"?>
<!-- Generator: Adobe Illustrator 23.0.1, SVG Export Plug-In . SVG Version: 6.00 Build 0)  -->
<svg version="1.1" id="Layer_1" xmlns="http://www.w3.org/2000/svg" xmlns:xlink="http://www.w3.org/1999/xlink" x="0px" y="0px"
	 viewBox="0 0 512 512" style="enable-background:new 0 0 512 512;" xml:space="preserve">
<style type="text/css">
	.st0{fill:#FFFFFF;}
</style>
<g>
	<path class="st0" d="M340.9,450c-12.5,0-24.9-2.2-37.1-6.6c-53.5-19.4-103.1-51.1-143.6-91.5s-72.1-90.1-91.6-143.6
		c-6.2-17.2-8.1-34.9-5.5-52.7c2.4-16.7,8.9-32.9,18.7-46.8c9.9-14,22.9-25.7,37.9-33.7c15.9-8.6,33.3-13,51.7-13
		c5.7,0,10.7,4,11.8,9.5l19,88.8c0.8,4-0.4,8.2-3.3,11.1L166.5,204c30.7,61,80.5,110.8,141.4,141.4l32.5-32.5
		c2.9-2.9,7.1-4.2,11.1-3.3l88.8,19c5.6,1.2,9.5,6.1,9.5,11.8c0,18.4-4.3,35.8-13,51.8c-8,14.9-19.7,28-33.7,37.9
		c-13.9,9.8-30.2,16.2-46.8,18.7C351.3,449.6,346,450,340.9,450L340.9,450z M161.7,86.8c-24.3,2.7-45.8,15.4-60,35.8
		c-16.1,23-19.9,51.2-10.3,77.4c37.4,102.9,117.8,183.3,220.7,220.7c26.2,9.5,54.5,5.8,77.4-10.3c20.4-14.3,33.1-35.8,35.8-60
		L353,334.7l-34,34c-3.6,3.6-9.1,4.5-13.7,2.4c-72.1-33.9-130.5-92.3-164.4-164.4c-2.2-4.6-1.2-10.1,2.4-13.7l34-34L161.7,86.8z"/>
	<path class="st0" d="M437.9,268.1c-6.7,0-12.1-5.5-12.1-12.1c0-93.6-76.2-169.8-169.8-169.8c-6.7,0-12.1-5.5-12.1-12.1
		c0-6.7,5.5-12.1,12.1-12.1c51.8,0,100.6,20.2,137.2,56.8S450,204.2,450,256C450,262.7,444.5,268.1,437.9,268.1L437.9,268.1z"/>
	<path class="st0" d="M389.4,268.1c-6.7,0-12.1-5.5-12.1-12.1c0-66.8-54.4-121.3-121.3-121.3c-6.7,0-12.1-5.5-12.1-12.1
		c0-6.7,5.5-12.1,12.1-12.1c80.3,0,145.5,65.2,145.5,145.5C401.5,262.7,396,268.1,389.4,268.1z"/>
	<path class="st0" d="M340.9,268.1c-6.7,0-12.1-5.5-12.1-12.1c0-40.1-32.7-72.8-72.8-72.8c-6.7,0-12.1-5.5-12.1-12.1
		S249.3,159,256,159c53.5,0,97,43.5,97,97C353,262.7,347.5,268.1,340.9,268.1z"/>
</g>
</svg>
